<svg xmlns="http://www.w3.org/2000/svg" width="276.85999999999996" height="35" viewBox="0 0 276.85999999999996 35"><rect class="svg__rect" x="0" y="0" width="142.71999999999997" height="35" fill="#31C4F3"/><rect class="svg__rect" x="140.71999999999997" y="0" width="136.14" height="35" fill="#389AD5"/><path class="svg__text" d="M13.95 18.19L13.95 18.19L13.95 17.39Q13.95 16.19 14.38 15.27Q14.80 14.35 15.60 13.85Q16.40 13.35 17.45 13.35L17.45 13.35Q18.86 13.35 19.73 14.12Q20.59 14.89 20.73 16.29L20.73 16.29L19.25 16.29Q19.14 15.37 18.71 14.96Q18.28 14.55 17.45 14.55L17.45 14.55Q16.48 14.55 15.97 15.26Q15.45 15.96 15.44 17.33L15.44 17.33L15.44 18.09Q15.44 19.47 15.93 20.20Q16.43 20.92 17.38 20.92L17.38 20.92Q18.25 20.92 18.69 20.53Q19.13 20.14 19.25 19.22L19.25 19.22L20.73 19.22Q20.60 20.59 19.72 21.35Q18.84 22.12 17.38 22.12L17.38 22.12Q16.36 22.12 15.59 21.63Q14.81 21.15 14.39 20.26Q13.97 19.37 13.95 18.19ZM26.52 22L25.04 22L25.04 13.47L28.04 13.47Q29.52 13.47 30.32 14.13Q31.12 14.79 31.12 16.05L31.12 16.05Q31.12 16.90 30.71 17.48Q30.30 18.06 29.56 18.37L29.56 18.37L31.47 21.92L31.47 22L29.89 22L28.17 18.71L26.52 18.71L26.52 22ZM26.52 14.66L26.52 17.52L28.05 17.52Q28.80 17.52 29.22 17.15Q29.64 16.77 29.64 16.11L29.64 16.11Q29.64 15.43 29.25 15.05Q28.86 14.68 28.09 14.66L28.09 14.66L26.52 14.66ZM41.09 22L35.52 22L35.52 13.47L41.05 13.47L41.05 14.66L37.00 14.66L37.00 17.02L40.50 17.02L40.50 18.19L37.00 18.19L37.00 20.82L41.09 20.82L41.09 22ZM46.07 22L44.53 22L47.75 13.47L49.08 13.47L52.31 22L50.76 22L50.06 20.01L46.76 20.01L46.07 22ZM48.41 15.28L47.18 18.82L49.65 18.82L48.41 15.28ZM57.95 14.66L55.31 14.66L55.31 13.47L62.08 13.47L62.08 14.66L59.42 14.66L59.42 22L57.95 22L57.95 14.66ZM71.41 22L65.83 22L65.83 13.47L71.37 13.47L71.37 14.66L67.31 14.66L67.31 17.02L70.82 17.02L70.82 18.19L67.31 18.19L67.31 20.82L71.41 20.82L71.41 22ZM78.06 22L75.61 22L75.61 13.47L78.13 13.47Q79.26 13.47 80.13 13.97Q81.01 14.48 81.49 15.40Q81.97 16.33 81.97 17.52L81.97 17.52L81.97 17.95Q81.97 19.16 81.49 20.08Q81.00 21.00 80.11 21.50Q79.22 22 78.06 22L78.06 22ZM77.09 14.66L77.09 20.82L78.06 20.82Q79.22 20.82 79.85 20.09Q80.47 19.36 80.48 17.99L80.48 17.99L80.48 17.52Q80.48 16.13 79.88 15.40Q79.27 14.66 78.13 14.66L78.13 14.66L77.09 14.66ZM93.79 22L91.82 13.47L93.30 13.47L94.62 19.88L96.25 13.47L97.49 13.47L99.10 19.89L100.41 13.47L101.89 13.47L99.92 22L98.50 22L96.88 15.77L95.22 22L93.79 22ZM107.52 22L106.05 22L106.05 13.47L107.52 13.47L107.52 22ZM114.01 14.66L111.38 14.66L111.38 13.47L118.14 13.47L118.14 14.66L115.48 14.66L115.48 22L114.01 22L114.01 14.66ZM123.38 22L121.90 22L121.90 13.47L123.38 13.47L123.38 17.02L127.20 17.02L127.20 13.47L128.67 13.47L128.67 22L127.20 22L127.20 18.21L123.38 18.21L123.38 22Z" fill="#FFFFFF"/><path class="svg__text" d="M156.70 15.48L154.12 15.48L154.12 13.60L161.64 13.60L161.64 15.48L159.07 15.48L159.07 22L156.70 22L156.70 15.48ZM168.14 18.95L164.93 13.60L167.44 13.60L169.43 16.94L171.43 13.60L173.73 13.60L170.51 18.99L170.51 22L168.14 22L168.14 18.95ZM180.19 22L177.81 22L177.81 13.60L181.66 13.60Q182.79 13.60 183.63 13.98Q184.47 14.35 184.93 15.06Q185.39 15.76 185.39 16.71L185.39 16.71Q185.39 17.66 184.93 18.35Q184.47 19.05 183.63 19.42Q182.79 19.80 181.66 19.80L181.66 19.80L180.19 19.80L180.19 22ZM180.19 15.47L180.19 17.93L181.51 17.93Q182.24 17.93 182.61 17.61Q182.99 17.29 182.99 16.71L182.99 16.71Q182.99 16.12 182.61 15.80Q182.24 15.47 181.51 15.47L181.51 15.47L180.19 15.47ZM196.88 22L190.14 22L190.14 13.60L196.73 13.60L196.73 15.44L192.50 15.44L192.50 16.85L196.23 16.85L196.23 18.63L192.50 18.63L192.50 20.17L196.88 20.17L196.88 22ZM201.10 21.24L201.10 21.24L201.88 19.49Q202.44 19.86 203.19 20.09Q203.93 20.32 204.65 20.32L204.65 20.32Q206.02 20.32 206.03 19.64L206.03 19.64Q206.03 19.28 205.64 19.11Q205.25 18.93 204.38 18.74L204.38 18.74Q203.43 18.53 202.79 18.30Q202.16 18.06 201.70 17.55Q201.25 17.03 201.25 16.16L201.25 16.16Q201.25 15.39 201.67 14.77Q202.09 14.15 202.92 13.79Q203.76 13.43 204.96 13.43L204.96 13.43Q205.79 13.43 206.60 13.62Q207.40 13.80 208.02 14.17L208.02 14.17L207.28 15.93Q206.08 15.28 204.95 15.28L204.95 15.28Q204.24 15.28 203.92 15.49Q203.60 15.70 203.60 16.04L203.60 16.04Q203.60 16.37 203.98 16.54Q204.37 16.71 205.22 16.89L205.22 16.89Q206.18 17.10 206.81 17.33Q207.44 17.56 207.90 18.07Q208.36 18.58 208.36 19.46L208.36 19.46Q208.36 20.21 207.94 20.83Q207.53 21.44 206.68 21.80Q205.84 22.17 204.64 22.17L204.64 22.17Q203.62 22.17 202.66 21.92Q201.70 21.67 201.10 21.24ZM212.51 17.80L212.51 17.80Q212.51 16.54 213.11 15.54Q213.71 14.55 214.76 13.99Q215.81 13.43 217.13 13.43L217.13 13.43Q218.28 13.43 219.21 13.84Q220.13 14.25 220.74 15.02L220.74 15.02L219.23 16.39Q218.42 15.40 217.25 15.40L217.25 15.40Q216.57 15.40 216.03 15.70Q215.50 16 215.20 16.54Q214.91 17.09 214.91 17.80L214.91 17.80Q214.91 18.51 215.20 19.05Q215.50 19.60 216.03 19.90Q216.57 20.20 217.25 20.20L217.25 20.20Q218.42 20.20 219.23 19.22L219.23 19.22L220.74 20.58Q220.13 21.35 219.21 21.76Q218.28 22.17 217.13 22.17L217.13 22.17Q215.81 22.17 214.76 21.61Q213.71 21.05 213.11 20.05Q212.51 19.06 212.51 17.80ZM227.66 22L225.28 22L225.28 13.60L229.12 13.60Q230.27 13.60 231.10 13.98Q231.94 14.35 232.40 15.06Q232.86 15.76 232.86 16.71L232.86 16.71Q232.86 17.62 232.43 18.30Q232.00 18.98 231.21 19.36L231.21 19.36L233.02 22L230.48 22L228.95 19.77L227.66 19.77L227.66 22ZM227.66 15.47L227.66 17.93L228.98 17.93Q229.71 17.93 230.08 17.61Q230.45 17.29 230.45 16.71L230.45 16.71Q230.45 16.12 230.08 15.79Q229.71 15.47 228.98 15.47L228.98 15.47L227.66 15.47ZM240.02 22L237.64 22L237.64 13.60L240.02 13.60L240.02 22ZM247.57 22L245.19 22L245.19 13.60L249.04 13.60Q250.18 13.60 251.02 13.98Q251.86 14.35 252.31 15.06Q252.77 15.76 252.77 16.71L252.77 16.71Q252.77 17.66 252.31 18.35Q251.86 19.05 251.02 19.42Q250.18 19.80 249.04 19.80L249.04 19.80L247.57 19.80L247.57 22ZM247.57 15.47L247.57 17.93L248.89 17.93Q249.62 17.93 250.00 17.61Q250.37 17.29 250.37 16.71L250.37 16.71Q250.37 16.12 250.00 15.80Q249.62 15.47 248.89 15.47L248.89 15.47L247.57 15.47ZM259.32 15.48L256.73 15.48L256.73 13.60L264.26 13.60L264.26 15.48L261.69 15.48L261.69 22L259.32 22L259.32 15.48Z" fill="#FFFFFF" x="153.71999999999997"/></svg>