<svg xmlns="http://www.w3.org/2000/svg" width="197.63" height="35" viewBox="0 0 197.63 35"><rect class="svg__rect" x="0" y="0" width="93.31" height="35" fill="#8FC965"/><rect class="svg__rect" x="91.31" y="0" width="106.32000000000001" height="35" fill="#419B5A"/><path class="svg__text" d="M15.70 22L14.22 22L14.22 13.47L15.70 13.47L19.51 19.54L19.51 13.47L20.98 13.47L20.98 22L19.50 22L15.70 15.95L15.70 22ZM25.46 18.00L25.46 18.00L25.46 17.52Q25.46 16.28 25.90 15.32Q26.34 14.37 27.15 13.86Q27.95 13.35 28.99 13.35Q30.04 13.35 30.84 13.85Q31.65 14.35 32.09 15.29Q32.53 16.23 32.53 17.48L32.53 17.48L32.53 17.96Q32.53 19.21 32.10 20.16Q31.67 21.10 30.86 21.61Q30.06 22.12 29.01 22.12L29.01 22.12Q27.97 22.12 27.16 21.61Q26.35 21.10 25.90 20.17Q25.46 19.23 25.46 18.00ZM26.94 17.46L26.94 17.96Q26.94 19.36 27.49 20.13Q28.03 20.90 29.01 20.90L29.01 20.90Q29.99 20.90 30.52 20.15Q31.05 19.40 31.05 17.96L31.05 17.96L31.05 17.51Q31.05 16.09 30.52 15.34Q29.98 14.58 28.99 14.58L28.99 14.58Q28.03 14.58 27.49 15.33Q26.95 16.09 26.94 17.46L26.94 17.46ZM39.45 22L37.00 22L37.00 13.47L39.52 13.47Q40.65 13.47 41.52 13.97Q42.40 14.48 42.88 15.40Q43.36 16.33 43.36 17.52L43.36 17.52L43.36 17.95Q43.36 19.16 42.88 20.08Q42.39 21.00 41.50 21.50Q40.61 22 39.45 22L39.45 22ZM38.48 14.66L38.48 20.82L39.45 20.82Q40.61 20.82 41.24 20.09Q41.86 19.36 41.87 17.99L41.87 17.99L41.87 17.52Q41.87 16.13 41.27 15.40Q40.67 14.66 39.52 14.66L39.52 14.66L38.48 14.66ZM53.40 22L47.83 22L47.83 13.47L53.36 13.47L53.36 14.66L49.31 14.66L49.31 17.02L52.81 17.02L52.81 18.19L49.31 18.19L49.31 20.82L53.40 20.82L53.40 22ZM57.75 21.85Q57.52 21.63 57.52 21.29Q57.52 20.95 57.74 20.73Q57.96 20.50 58.35 20.50L58.35 20.50Q58.75 20.50 58.97 20.73Q59.18 20.95 59.18 21.29L59.18 21.29Q59.18 21.63 58.97 21.84Q58.75 22.06 58.35 22.06L58.35 22.06Q57.97 22.06 57.75 21.85ZM63.34 19.57L63.34 19.57L64.81 19.57Q64.81 20.25 65.15 20.59Q65.49 20.93 66.13 20.93L66.13 20.93Q66.72 20.93 67.08 20.54Q67.43 20.14 67.43 19.45L67.43 19.45L67.43 13.47L68.91 13.47L68.91 19.45Q68.91 20.68 68.14 21.40Q67.38 22.12 66.13 22.12L66.13 22.12Q64.79 22.12 64.06 21.44Q63.34 20.77 63.34 19.57ZM73.16 19.42L73.16 19.42L74.64 19.42Q74.64 20.15 75.12 20.55Q75.60 20.95 76.50 20.95L76.50 20.95Q77.27 20.95 77.66 20.63Q78.05 20.32 78.05 19.80L78.05 19.80Q78.05 19.24 77.65 18.94Q77.26 18.63 76.23 18.32Q75.20 18.01 74.59 17.63L74.59 17.63Q73.42 16.90 73.42 15.72L73.42 15.72Q73.42 14.69 74.26 14.02Q75.10 13.35 76.44 13.35L76.44 13.35Q77.33 13.35 78.03 13.68Q78.73 14.01 79.13 14.61Q79.53 15.22 79.53 15.96L79.53 15.96L78.05 15.96Q78.05 15.29 77.63 14.91Q77.21 14.54 76.43 14.54L76.43 14.54Q75.71 14.54 75.30 14.85Q74.90 15.16 74.90 15.71L74.90 15.71Q74.90 16.18 75.34 16.50Q75.77 16.81 76.77 17.10Q77.76 17.40 78.37 17.78Q78.97 18.16 79.25 18.65Q79.53 19.13 79.53 19.79L79.53 19.79Q79.53 20.86 78.71 21.49Q77.90 22.12 76.50 22.12L76.50 22.12Q75.57 22.12 74.79 21.77Q74.02 21.43 73.59 20.83Q73.16 20.22 73.16 19.42Z" fill="#FFFFFF"/><path class="svg__text" d="M111.27 18.72L105.36 20.91L105.36 19.16L109.18 17.80L105.36 16.45L105.36 14.69L111.27 16.88L111.27 18.72ZM122.06 20.19L116.15 20.19L116.15 18.45L122.06 18.45L122.06 20.19ZM122.06 17.15L116.15 17.15L116.15 15.41L122.06 15.41L122.06 17.15ZM134.85 15.44L133.29 15.44L133.29 13.60L137.23 13.60L137.23 22L134.85 22L134.85 15.44ZM141.97 18.03L141.97 18.03Q141.97 16.59 142.53 15.55Q143.09 14.51 144.09 13.97Q145.10 13.43 146.43 13.43L146.43 13.43Q147.15 13.43 147.80 13.59Q148.45 13.74 148.90 14.04L148.90 14.04L148.04 15.75Q147.43 15.31 146.50 15.31L146.50 15.31Q145.58 15.31 145.02 15.82Q144.46 16.32 144.37 17.27L144.37 17.27Q145.09 16.65 146.27 16.65L146.27 16.65Q147.06 16.65 147.72 16.98Q148.38 17.31 148.77 17.91Q149.16 18.52 149.16 19.30L149.16 19.30Q149.16 20.15 148.72 20.80Q148.28 21.46 147.53 21.82Q146.78 22.17 145.86 22.17L145.86 22.17Q144.06 22.17 143.02 21.10Q141.97 20.03 141.97 18.03ZM144.54 19.42L144.54 19.42Q144.54 19.89 144.86 20.18Q145.17 20.48 145.72 20.48L145.72 20.48Q146.22 20.48 146.54 20.19Q146.85 19.90 146.85 19.41L146.85 19.41Q146.85 18.93 146.54 18.64Q146.22 18.35 145.70 18.35L145.70 18.35Q145.19 18.35 144.86 18.65Q144.54 18.94 144.54 19.42ZM153.16 20.75L153.16 20.75Q153.16 20.15 153.55 19.78Q153.94 19.41 154.53 19.41L154.53 19.41Q155.13 19.41 155.51 19.78Q155.89 20.15 155.89 20.75L155.89 20.75Q155.89 21.34 155.50 21.72Q155.12 22.11 154.53 22.11L154.53 22.11Q153.95 22.11 153.55 21.72Q153.16 21.34 153.16 20.75ZM160.12 18.03L160.12 18.03Q160.12 16.59 160.68 15.55Q161.24 14.51 162.25 13.97Q163.25 13.43 164.58 13.43L164.58 13.43Q165.30 13.43 165.95 13.59Q166.61 13.74 167.06 14.04L167.06 14.04L166.20 15.75Q165.59 15.31 164.65 15.31L164.65 15.31Q163.73 15.31 163.17 15.82Q162.61 16.32 162.52 17.27L162.52 17.27Q163.24 16.65 164.42 16.65L164.42 16.65Q165.21 16.65 165.87 16.98Q166.53 17.31 166.92 17.91Q167.31 18.52 167.31 19.30L167.31 19.30Q167.31 20.15 166.87 20.80Q166.44 21.46 165.69 21.82Q164.94 22.17 164.01 22.17L164.01 22.17Q162.21 22.17 161.17 21.10Q160.12 20.03 160.12 18.03ZM162.69 19.42L162.69 19.42Q162.69 19.89 163.01 20.18Q163.32 20.48 163.87 20.48L163.87 20.48Q164.37 20.48 164.69 20.19Q165.01 19.90 165.01 19.41L165.01 19.41Q165.01 18.93 164.69 18.64Q164.37 18.35 163.86 18.35L163.86 18.35Q163.34 18.35 163.02 18.65Q162.69 18.94 162.69 19.42ZM171.31 20.75L171.31 20.75Q171.31 20.15 171.70 19.78Q172.09 19.41 172.68 19.41L172.68 19.41Q173.28 19.41 173.66 19.78Q174.05 20.15 174.05 20.75L174.05 20.75Q174.05 21.34 173.66 21.72Q173.27 22.11 172.68 22.11L172.68 22.11Q172.10 22.11 171.71 21.72Q171.31 21.34 171.31 20.75ZM178.28 17.80L178.28 17.80Q178.28 16.45 178.75 15.46Q179.22 14.46 180.06 13.95Q180.90 13.43 181.98 13.43L181.98 13.43Q183.05 13.43 183.89 13.95Q184.73 14.46 185.20 15.46Q185.68 16.45 185.68 17.80L185.68 17.80Q185.68 19.15 185.20 20.15Q184.73 21.14 183.89 21.65Q183.05 22.17 181.98 22.17L181.98 22.17Q180.90 22.17 180.06 21.65Q179.22 21.14 178.75 20.15Q178.28 19.16 178.28 17.80ZM180.66 17.80L180.66 17.80Q180.66 19.06 181.02 19.64Q181.37 20.22 181.98 20.22L181.98 20.22Q182.58 20.22 182.94 19.64Q183.29 19.06 183.29 17.80L183.29 17.80Q183.29 16.54 182.94 15.96Q182.58 15.38 181.98 15.38L181.98 15.38Q181.37 15.38 181.02 15.96Q180.66 16.54 180.66 17.80Z" fill="#FFFFFF" x="104.31"/></svg>